<?xml version="1.0" encoding="iso-8859-1"?>
<!-- Generator: Adobe Illustrator 18.1.1, SVG Export Plug-In . SVG Version: 6.00 Build 0)  -->
<svg version="1.1" id="Capa_1" xmlns="http://www.w3.org/2000/svg" xmlns:xlink="http://www.w3.org/1999/xlink" x="0px" y="0px"
	 viewBox="0 0 525.153 525.153" style="enable-background:new 0 0 525.153 525.153;" xml:space="preserve">
<g>
	<path d="M151.135,276.93h50.743l-25.36-80.545L151.135,276.93z M485.438,152.25l-26.476,138.793L425.855,152.25h-35.273
		l-32.888,138.793L330.977,152.25h-16.783c-32.45-40.371-81.88-66.191-137.677-66.191C78.992,86.059,0,165.051,0,262.576
		s78.992,176.517,176.517,176.517c69.058,0,128.859-39.955,157.765-97.744l2.21,9.496h38.621l33.107-134.592l33.085,134.592h38.621
		l45.229-198.595H485.438z M227.282,350.846l-15.47-44.135h-70.589l-15.426,44.135H83.871L154.46,152.25h44.135l70.655,198.595
		H227.282z"/>
</g>
<g>
</g>
<g>
</g>
<g>
</g>
<g>
</g>
<g>
</g>
<g>
</g>
<g>
</g>
<g>
</g>
<g>
</g>
<g>
</g>
<g>
</g>
<g>
</g>
<g>
</g>
<g>
</g>
<g>
</g>
</svg>
